<svg width="960" height="768" viewBox="0 0 960 768" fill="none" xmlns="http://www.w3.org/2000/svg">
<rect width="768" height="960" transform="translate(960) rotate(90)" fill="#125032" style="fill:#125032;fill:color(display-p3 0.0706 0.3137 0.1961);fill-opacity:1;"/>
<g style="mix-blend-mode:soft-light">
<path d="M288 576C234.981 576 192 533.019 192 480C192 426.981 234.981 384 288 384C341.019 384 384 426.981 384 480C384 533.019 341.019 576 288 576Z" fill="#389E67" style="fill:#389E67;fill:color(display-p3 0.2182 0.6210 0.4035);fill-opacity:1;"/>
</g>
<g style="mix-blend-mode:soft-light">
<path d="M-4.58593e-05 384L48 384C48 463.529 112.471 528 192 528L192 576C85.9613 576 -5.04944e-05 490.039 -4.58593e-05 384Z" fill="#41C676" style="fill:#41C676;fill:color(display-p3 0.2542 0.7772 0.4634);fill-opacity:1;"/>
</g>
<g style="mix-blend-mode:soft-light">
<path d="M576 768C576 714.981 618.981 672 672 672L672 768L576 768Z" fill="#BBFBD1" style="fill:#BBFBD1;fill:color(display-p3 0.7333 0.9843 0.8187);fill-opacity:1;"/>
<path d="M768 768C714.981 768 672 725.019 672 672L768 672L768 768Z" fill="#BBFBD1" style="fill:#BBFBD1;fill:color(display-p3 0.7333 0.9843 0.8187);fill-opacity:1;"/>
<path d="M768 576C768 629.019 725.019 672 672 672L672 576L768 576Z" fill="#BBFBD1" style="fill:#BBFBD1;fill:color(display-p3 0.7333 0.9843 0.8187);fill-opacity:1;"/>
<path d="M576 576C629.019 576 672 618.981 672 672L576 672L576 576Z" fill="#BBFBD1" style="fill:#BBFBD1;fill:color(display-p3 0.7333 0.9843 0.8187);fill-opacity:1;"/>
</g>
<g style="mix-blend-mode:soft-light">
<path d="M221.701 676.683C212.349 673.643 202.366 672 192 672C181.634 672 171.651 673.643 162.299 676.683L221.701 676.683Z" fill="#92F6A2" style="fill:#92F6A2;fill:color(display-p3 0.5725 0.9647 0.6353);fill-opacity:1;"/>
<path d="M141.974 686.049C144.756 684.347 147.631 682.783 150.59 681.366L233.41 681.366C236.369 682.783 239.245 684.347 242.026 686.049L141.974 686.049Z" fill="#92F6A2" style="fill:#92F6A2;fill:color(display-p3 0.5725 0.9647 0.6353);fill-opacity:1;"/>
<path d="M129.17 695.415C131.057 693.78 133.008 692.217 135.019 690.732L248.981 690.732C250.992 692.217 252.944 693.78 254.83 695.415L129.17 695.415Z" fill="#92F6A2" style="fill:#92F6A2;fill:color(display-p3 0.5725 0.9647 0.6353);fill-opacity:1;"/>
<path d="M119.754 704.78C121.163 703.171 122.625 701.609 124.138 700.098L259.862 700.098C261.375 701.609 262.837 703.171 264.246 704.78L119.754 704.78Z" fill="#92F6A2" style="fill:#92F6A2;fill:color(display-p3 0.5725 0.9647 0.6353);fill-opacity:1;"/>
<path d="M112.517 714.146C113.6 712.55 114.73 710.989 115.906 709.463L268.095 709.463C269.27 710.989 270.4 712.55 271.483 714.146L112.517 714.146Z" fill="#92F6A2" style="fill:#92F6A2;fill:color(display-p3 0.5725 0.9647 0.6353);fill-opacity:1;"/>
<path d="M106.908 723.512C107.74 721.925 108.615 720.363 109.531 718.829L274.469 718.829C275.385 720.363 276.26 721.925 277.092 723.512L106.908 723.512Z" fill="#92F6A2" style="fill:#92F6A2;fill:color(display-p3 0.5725 0.9647 0.6353);fill-opacity:1;"/>
<path d="M102.628 732.878C103.25 731.296 103.913 729.735 104.615 728.195L279.385 728.195C280.087 729.735 280.75 731.296 281.372 732.878L102.628 732.878Z" fill="#92F6A2" style="fill:#92F6A2;fill:color(display-p3 0.5725 0.9647 0.6353);fill-opacity:1;"/>
<path d="M99.4944 742.244C99.9327 740.666 100.41 739.105 100.926 737.561L283.074 737.561C283.59 739.105 284.067 740.666 284.506 742.244L99.4944 742.244Z" fill="#92F6A2" style="fill:#92F6A2;fill:color(display-p3 0.5725 0.9647 0.6353);fill-opacity:1;"/>
<path d="M97.3937 751.61C97.6645 750.035 97.9737 748.474 98.3202 746.927L285.68 746.927C286.026 748.474 286.336 750.035 286.606 751.61L97.3937 751.61Z" fill="#92F6A2" style="fill:#92F6A2;fill:color(display-p3 0.5725 0.9647 0.6353);fill-opacity:1;"/>
<path d="M96.2531 760.976C96.3668 759.404 96.5183 757.843 96.7068 756.293L287.293 756.293C287.482 757.843 287.633 759.404 287.747 760.976L96.2531 760.976Z" fill="#92F6A2" style="fill:#92F6A2;fill:color(display-p3 0.5725 0.9647 0.6353);fill-opacity:1;"/>
<path d="M96.028 768C95.9907 766.44 95.9907 767.219 96.028 765.659L287.972 765.659C288.009 767.215 288.009 766.444 287.972 768L96.028 768Z" fill="#92F6A2" style="fill:#92F6A2;fill:color(display-p3 0.5725 0.9647 0.6353);fill-opacity:1;"/>
<path fill-rule="evenodd" clip-rule="evenodd" d="M384 768C384 661.961 298.039 576 192 576C85.9614 576 5.44759e-05 661.961 5.9111e-05 768L384 768ZM336 768C336 688.471 271.529 624 192 624C112.471 624 48.0001 688.471 48.0001 768L336 768Z" fill="#92F6A2" style="fill:#92F6A2;fill:color(display-p3 0.5725 0.9647 0.6353);fill-opacity:1;"/>
</g>
<g style="mix-blend-mode:soft-light">
<path d="M576 768L576 763.317L384 763.317L384 768L576 768Z" fill="#389E67" style="fill:#389E67;fill:color(display-p3 0.2182 0.6210 0.4035);fill-opacity:1;"/>
<path d="M576 758.634L576 753.951L384 753.951L384 758.634L576 758.634Z" fill="#389E67" style="fill:#389E67;fill:color(display-p3 0.2182 0.6210 0.4035);fill-opacity:1;"/>
<path d="M576 749.268L576 744.585L384 744.585L384 749.268L576 749.268Z" fill="#389E67" style="fill:#389E67;fill:color(display-p3 0.2182 0.6210 0.4035);fill-opacity:1;"/>
<path d="M576 739.902L576 735.22L384 735.219L384 739.902L576 739.902Z" fill="#389E67" style="fill:#389E67;fill:color(display-p3 0.2182 0.6210 0.4035);fill-opacity:1;"/>
<path d="M576 730.537L576 725.854L384 725.854L384 730.537L576 730.537Z" fill="#389E67" style="fill:#389E67;fill:color(display-p3 0.2182 0.6210 0.4035);fill-opacity:1;"/>
<path d="M576 721.171L576 716.488L384 716.488L384 721.171L576 721.171Z" fill="#389E67" style="fill:#389E67;fill:color(display-p3 0.2182 0.6210 0.4035);fill-opacity:1;"/>
<path d="M576 711.805L576 707.122L384 707.122L384 711.805L576 711.805Z" fill="#389E67" style="fill:#389E67;fill:color(display-p3 0.2182 0.6210 0.4035);fill-opacity:1;"/>
<path d="M576 702.439L576 697.756L384 697.756L384 702.439L576 702.439Z" fill="#389E67" style="fill:#389E67;fill:color(display-p3 0.2182 0.6210 0.4035);fill-opacity:1;"/>
<path d="M576 693.073L576 688.39L384 688.39L384 693.073L576 693.073Z" fill="#389E67" style="fill:#389E67;fill:color(display-p3 0.2182 0.6210 0.4035);fill-opacity:1;"/>
<path d="M576 683.707L576 679.024L384 679.024L384 683.707L576 683.707Z" fill="#389E67" style="fill:#389E67;fill:color(display-p3 0.2182 0.6210 0.4035);fill-opacity:1;"/>
<path d="M576 674.341L576 669.659L384 669.659L384 674.341L576 674.341Z" fill="#389E67" style="fill:#389E67;fill:color(display-p3 0.2182 0.6210 0.4035);fill-opacity:1;"/>
<path d="M576 664.976L576 660.293L384 660.293L384 664.976L576 664.976Z" fill="#389E67" style="fill:#389E67;fill:color(display-p3 0.2182 0.6210 0.4035);fill-opacity:1;"/>
<path d="M576 655.61L576 650.927L384 650.927L384 655.61L576 655.61Z" fill="#389E67" style="fill:#389E67;fill:color(display-p3 0.2182 0.6210 0.4035);fill-opacity:1;"/>
<path d="M576 646.244L576 641.561L384 641.561L384 646.244L576 646.244Z" fill="#389E67" style="fill:#389E67;fill:color(display-p3 0.2182 0.6210 0.4035);fill-opacity:1;"/>
<path d="M576 636.878L576 632.195L384 632.195L384 636.878L576 636.878Z" fill="#389E67" style="fill:#389E67;fill:color(display-p3 0.2182 0.6210 0.4035);fill-opacity:1;"/>
<path d="M576 627.512L576 622.829L384 622.829L384 627.512L576 627.512Z" fill="#389E67" style="fill:#389E67;fill:color(display-p3 0.2182 0.6210 0.4035);fill-opacity:1;"/>
<path d="M576 618.146L576 613.463L384 613.463L384 618.146L576 618.146Z" fill="#389E67" style="fill:#389E67;fill:color(display-p3 0.2182 0.6210 0.4035);fill-opacity:1;"/>
<path d="M576 608.78L576 604.098L384 604.098L384 608.78L576 608.78Z" fill="#389E67" style="fill:#389E67;fill:color(display-p3 0.2182 0.6210 0.4035);fill-opacity:1;"/>
<path d="M576 599.415L576 594.732L384 594.732L384 599.415L576 599.415Z" fill="#389E67" style="fill:#389E67;fill:color(display-p3 0.2182 0.6210 0.4035);fill-opacity:1;"/>
<path d="M576 590.049L576 585.366L384 585.366L384 590.049L576 590.049Z" fill="#389E67" style="fill:#389E67;fill:color(display-p3 0.2182 0.6210 0.4035);fill-opacity:1;"/>
<path d="M576 580.683L576 576L384 576L384 580.683L576 580.683Z" fill="#389E67" style="fill:#389E67;fill:color(display-p3 0.2182 0.6210 0.4035);fill-opacity:1;"/>
<path d="M528 722.4L528 626.4L432 626.4L432 722.4L528 722.4Z" fill="#389E67" style="fill:#389E67;fill:color(display-p3 0.2182 0.6210 0.4035);fill-opacity:1;"/>
</g>
<g style="mix-blend-mode:soft-light">
<path fill-rule="evenodd" clip-rule="evenodd" d="M893.701 196.683C884.349 193.643 874.366 192 864 192C853.634 192 843.651 193.643 834.299 196.683L893.701 196.683ZM813.974 206.049C816.755 204.347 819.631 202.783 822.59 201.366L905.41 201.366C908.369 202.783 911.245 204.347 914.026 206.049L813.974 206.049ZM801.17 215.415C803.057 213.78 805.008 212.217 807.019 210.732L920.981 210.732C922.992 212.217 924.943 213.78 926.83 215.415L801.17 215.415ZM791.754 224.78C793.163 223.171 794.625 221.609 796.138 220.098L931.862 220.098C933.375 221.609 934.837 223.171 936.246 224.78L791.754 224.78ZM784.517 234.146C785.6 232.55 786.73 230.989 787.905 229.463L940.095 229.463C941.27 230.989 942.4 232.55 943.483 234.146L784.517 234.146ZM778.908 243.512C779.74 241.925 780.615 240.363 781.531 238.829L946.469 238.829C947.385 240.363 948.26 241.925 949.092 243.512L778.908 243.512ZM774.628 252.878C775.25 251.296 775.913 249.735 776.615 248.195L951.385 248.195C952.087 249.735 952.75 251.296 953.372 252.878L774.628 252.878ZM771.494 262.244C771.933 260.666 772.41 259.105 772.926 257.561L955.074 257.561C955.59 259.105 956.067 260.666 956.506 262.244L771.494 262.244ZM769.394 271.61C769.664 270.035 769.974 268.474 770.32 266.927L957.68 266.927C958.026 268.474 958.336 270.035 958.606 271.61L769.394 271.61ZM768.253 280.976C768.367 279.404 768.518 277.843 768.707 276.293L959.293 276.293C959.482 277.843 959.633 279.404 959.747 280.976L768.253 280.976ZM768.028 290.341C768.009 289.563 768 288.783 768 288C768 287.217 768.009 286.437 768.028 285.659L959.972 285.659C959.991 286.437 960 287.217 960 288C960 288.783 959.991 289.563 959.972 290.341L768.028 290.341ZM768.707 299.707C768.518 298.157 768.367 296.596 768.253 295.024L959.747 295.024C959.633 296.596 959.482 298.157 959.293 299.707L768.707 299.707ZM770.32 309.073C769.974 307.526 769.664 305.965 769.394 304.39L958.606 304.39C958.336 305.965 958.026 307.526 957.68 309.073L770.32 309.073ZM772.926 318.439C772.41 316.895 771.933 315.334 771.494 313.756L956.506 313.756C956.067 315.334 955.59 316.895 955.074 318.439L772.926 318.439ZM776.615 327.805C775.913 326.265 775.25 324.704 774.628 323.122L953.372 323.122C952.75 324.704 952.087 326.265 951.385 327.805L776.615 327.805ZM781.531 337.171C780.615 335.637 779.74 334.075 778.908 332.488L949.092 332.488C948.26 334.075 947.385 335.637 946.469 337.171L781.531 337.171ZM787.905 346.537C786.73 345.011 785.6 343.45 784.517 341.854L943.483 341.854C942.4 343.45 941.27 345.011 940.095 346.537L787.905 346.537ZM796.138 355.902C794.625 354.391 793.163 352.829 791.754 351.219L936.246 351.22C934.837 352.829 933.375 354.391 931.862 355.902L796.138 355.902ZM807.019 365.268C805.008 363.783 803.057 362.22 801.17 360.585L926.83 360.585C924.943 362.22 922.992 363.783 920.981 365.268L807.019 365.268ZM822.59 374.634C819.631 373.217 816.755 371.653 813.974 369.951L914.026 369.951C911.245 371.653 908.369 373.217 905.41 374.634L822.59 374.634ZM864 384C853.634 384 843.651 382.357 834.299 379.317L893.701 379.317C884.349 382.357 874.366 384 864 384Z" fill="#77ED91" style="fill:#77ED91;fill:color(display-p3 0.4655 0.9305 0.5678);fill-opacity:1;"/>
<path d="M864 384C810.981 384 768 341.019 768 288L960 288C960 341.019 917.019 384 864 384Z" fill="#77ED91" style="fill:#77ED91;fill:color(display-p3 0.4655 0.9305 0.5678);fill-opacity:1;"/>
</g>
<g style="mix-blend-mode:soft-light">
<path d="M960 0.000488281C960 53.0198 917.019 96.0005 864 96.0005C917.019 96.0005 960 138.981 960 192L864 192C810.981 192 768 149.02 768 96.0005C768 42.9811 810.981 0.000481767 864 0.000484085L960 0.000488281Z" fill="#56D9C1" style="fill:#56D9C1;fill:color(display-p3 0.3384 0.8498 0.7578);fill-opacity:1;"/>
</g>
<g style="mix-blend-mode:soft-light">
<path d="M672 192C618.981 192 576 149.019 576 96C576 42.9806 618.981 -6.51384e-06 672 -4.19629e-06L672 192Z" fill="#389E67" style="fill:#389E67;fill:color(display-p3 0.2182 0.6210 0.4035);fill-opacity:1;"/>
<path d="M768 0.000204282L768 4.68313L672 4.68313L672 -4.19629e-06L768 0.000204282Z" fill="#389E67" style="fill:#389E67;fill:color(display-p3 0.2182 0.6210 0.4035);fill-opacity:1;"/>
<path d="M768 9.36606L768 14.049L672 14.049L672 9.36605L768 9.36606Z" fill="#389E67" style="fill:#389E67;fill:color(display-p3 0.2182 0.6210 0.4035);fill-opacity:1;"/>
<path d="M768 18.7319L768 23.4148L672 23.4148L672 18.7319L768 18.7319Z" fill="#389E67" style="fill:#389E67;fill:color(display-p3 0.2182 0.6210 0.4035);fill-opacity:1;"/>
<path d="M768 28.0978L768 32.7807L672 32.7807L672 28.0978L768 28.0978Z" fill="#389E67" style="fill:#389E67;fill:color(display-p3 0.2182 0.6210 0.4035);fill-opacity:1;"/>
<path d="M768 37.4636L768 42.1465L672 42.1465L672 37.4636L768 37.4636Z" fill="#389E67" style="fill:#389E67;fill:color(display-p3 0.2182 0.6210 0.4035);fill-opacity:1;"/>
<path d="M768 46.8295L768 51.5124L672 51.5124L672 46.8295L768 46.8295Z" fill="#389E67" style="fill:#389E67;fill:color(display-p3 0.2182 0.6210 0.4035);fill-opacity:1;"/>
<path d="M768 56.1953L768 60.8782L672 60.8782L672 56.1953L768 56.1953Z" fill="#389E67" style="fill:#389E67;fill:color(display-p3 0.2182 0.6210 0.4035);fill-opacity:1;"/>
<path d="M768 65.5612L768 70.2441L672 70.2441L672 65.5612L768 65.5612Z" fill="#389E67" style="fill:#389E67;fill:color(display-p3 0.2182 0.6210 0.4035);fill-opacity:1;"/>
<path d="M768 74.927L768 79.61L672 79.6099L672 74.927L768 74.927Z" fill="#389E67" style="fill:#389E67;fill:color(display-p3 0.2182 0.6210 0.4035);fill-opacity:1;"/>
<path d="M768 84.2929L768 88.9758L672 88.9758L672 84.2929L768 84.2929Z" fill="#389E67" style="fill:#389E67;fill:color(display-p3 0.2182 0.6210 0.4035);fill-opacity:1;"/>
<path d="M768 93.6587L768 98.3417L672 98.3417L672 93.6587L768 93.6587Z" fill="#389E67" style="fill:#389E67;fill:color(display-p3 0.2182 0.6210 0.4035);fill-opacity:1;"/>
<path d="M768 103.025L768 107.708L672 107.708L672 103.025L768 103.025Z" fill="#389E67" style="fill:#389E67;fill:color(display-p3 0.2182 0.6210 0.4035);fill-opacity:1;"/>
<path d="M768 112.39L768 117.073L672 117.073L672 112.39L768 112.39Z" fill="#389E67" style="fill:#389E67;fill:color(display-p3 0.2182 0.6210 0.4035);fill-opacity:1;"/>
<path d="M768 121.756L768 126.439L672 126.439L672 121.756L768 121.756Z" fill="#389E67" style="fill:#389E67;fill:color(display-p3 0.2182 0.6210 0.4035);fill-opacity:1;"/>
<path d="M768 131.122L768 135.805L672 135.805L672 131.122L768 131.122Z" fill="#389E67" style="fill:#389E67;fill:color(display-p3 0.2182 0.6210 0.4035);fill-opacity:1;"/>
<path d="M768 140.488L768 145.171L672 145.171L672 140.488L768 140.488Z" fill="#389E67" style="fill:#389E67;fill:color(display-p3 0.2182 0.6210 0.4035);fill-opacity:1;"/>
<path d="M768 149.854L768 154.537L672 154.537L672 149.854L768 149.854Z" fill="#389E67" style="fill:#389E67;fill:color(display-p3 0.2182 0.6210 0.4035);fill-opacity:1;"/>
<path d="M768 159.22L768 163.903L672 163.903L672 159.22L768 159.22Z" fill="#389E67" style="fill:#389E67;fill:color(display-p3 0.2182 0.6210 0.4035);fill-opacity:1;"/>
<path d="M768 168.586L768 173.268L672 173.268L672 168.586L768 168.586Z" fill="#389E67" style="fill:#389E67;fill:color(display-p3 0.2182 0.6210 0.4035);fill-opacity:1;"/>
<path d="M768 177.951L768 182.634L672 182.634L672 177.951L768 177.951Z" fill="#389E67" style="fill:#389E67;fill:color(display-p3 0.2182 0.6210 0.4035);fill-opacity:1;"/>
<path d="M768 187.317L768 192L672 192L672 187.317L768 187.317Z" fill="#389E67" style="fill:#389E67;fill:color(display-p3 0.2182 0.6210 0.4035);fill-opacity:1;"/>
</g>
<g style="mix-blend-mode:soft-light">
<path fill-rule="evenodd" clip-rule="evenodd" d="M768 480C768 533.019 810.981 576 864 576C917.019 576 960 533.019 960 480C960 426.981 917.019 384 864 384C810.981 384 768 426.981 768 480ZM816 480C816 506.51 837.49 528 864 528C890.51 528 912 506.51 912 480C912 453.49 890.51 432 864 432C837.49 432 816 453.49 816 480Z" fill="#BBFBD1" style="fill:#BBFBD1;fill:color(display-p3 0.7333 0.9843 0.8187);fill-opacity:1;"/>
<path d="M882.057 435.512C876.483 433.247 870.387 432 864 432C857.613 432 851.517 433.247 845.943 435.512L882.057 435.512Z" fill="#BBFBD1" style="fill:#BBFBD1;fill:color(display-p3 0.7333 0.9843 0.8187);fill-opacity:1;"/>
<path d="M831.282 444.878C833.115 443.169 835.083 441.603 837.167 440.195L890.833 440.195C892.917 441.603 894.885 443.169 896.718 444.878L831.282 444.878Z" fill="#BBFBD1" style="fill:#BBFBD1;fill:color(display-p3 0.7333 0.9843 0.8187);fill-opacity:1;"/>
<path d="M823.488 454.244C824.527 452.613 825.662 451.05 826.884 449.561L901.116 449.561C902.338 451.05 903.473 452.613 904.512 454.244L823.488 454.244Z" fill="#BBFBD1" style="fill:#BBFBD1;fill:color(display-p3 0.7333 0.9843 0.8187);fill-opacity:1;"/>
<path d="M818.871 463.61C819.453 462.007 820.118 460.444 820.861 458.927L907.139 458.927C907.882 460.444 908.547 462.007 909.129 463.61L818.871 463.61Z" fill="#BBFBD1" style="fill:#BBFBD1;fill:color(display-p3 0.7333 0.9843 0.8187);fill-opacity:1;"/>
<path d="M816.51 472.976C816.743 471.388 817.054 469.826 817.438 468.293L910.562 468.293C910.946 469.826 911.257 471.388 911.49 472.976L816.51 472.976Z" fill="#BBFBD1" style="fill:#BBFBD1;fill:color(display-p3 0.7333 0.9843 0.8187);fill-opacity:1;"/>
<path d="M816.056 482.341C816.019 481.566 816 480.785 816 480C816 479.215 816.019 478.434 816.056 477.658L911.944 477.658C911.981 478.434 912 479.215 912 480C912 480.785 911.981 481.566 911.944 482.341L816.056 482.341Z" fill="#BBFBD1" style="fill:#BBFBD1;fill:color(display-p3 0.7333 0.9843 0.8187);fill-opacity:1;"/>
<path d="M817.438 491.707C817.054 490.174 816.743 488.612 816.51 487.024L911.49 487.024C911.257 488.612 910.946 490.174 910.562 491.707L817.438 491.707Z" fill="#BBFBD1" style="fill:#BBFBD1;fill:color(display-p3 0.7333 0.9843 0.8187);fill-opacity:1;"/>
<path d="M820.861 501.073C820.118 499.555 819.453 497.993 818.871 496.39L909.129 496.39C908.547 497.993 907.882 499.555 907.139 501.073L820.861 501.073Z" fill="#BBFBD1" style="fill:#BBFBD1;fill:color(display-p3 0.7333 0.9843 0.8187);fill-opacity:1;"/>
<path d="M826.884 510.439C825.662 508.95 824.527 507.387 823.488 505.756L904.512 505.756C903.473 507.387 902.338 508.95 901.116 510.439L826.884 510.439Z" fill="#BBFBD1" style="fill:#BBFBD1;fill:color(display-p3 0.7333 0.9843 0.8187);fill-opacity:1;"/>
<path d="M837.166 519.805C835.083 518.397 833.115 516.831 831.282 515.122L896.718 515.122C894.885 516.831 892.917 518.397 890.834 519.805L837.166 519.805Z" fill="#BBFBD1" style="fill:#BBFBD1;fill:color(display-p3 0.7333 0.9843 0.8187);fill-opacity:1;"/>
<path d="M882.057 524.488C876.483 526.752 870.387 528 864 528C857.613 528 851.517 526.752 845.943 524.488L882.057 524.488Z" fill="#BBFBD1" style="fill:#BBFBD1;fill:color(display-p3 0.7333 0.9843 0.8187);fill-opacity:1;"/>
</g>
<g style="mix-blend-mode:soft-light">
<path d="M125.701 4.68292C116.349 1.64304 106.366 -3.74317e-06 96 -4.19629e-06C85.6337 -4.64942e-06 75.6512 1.64304 66.2987 4.68292L125.701 4.68292Z" fill="#BBFBD1" style="fill:#BBFBD1;fill:color(display-p3 0.7333 0.9843 0.8187);fill-opacity:1;"/>
<path d="M45.9736 14.0488C48.7555 12.347 51.6307 10.7828 54.5899 9.36585L137.41 9.36585C140.369 10.7828 143.245 12.347 146.026 14.0488L45.9736 14.0488Z" fill="#BBFBD1" style="fill:#BBFBD1;fill:color(display-p3 0.7333 0.9843 0.8187);fill-opacity:1;"/>
<path d="M33.1696 23.4146C35.0566 21.7799 37.0079 20.2175 39.0193 18.7317L152.981 18.7317C154.992 20.2175 156.943 21.7799 158.83 23.4146L33.1696 23.4146Z" fill="#BBFBD1" style="fill:#BBFBD1;fill:color(display-p3 0.7333 0.9843 0.8187);fill-opacity:1;"/>
<path d="M23.7536 32.7805C25.1631 31.1711 26.6254 29.6092 28.138 28.0976L163.862 28.0976C165.375 29.6092 166.837 31.1711 168.246 32.7805L23.7536 32.7805Z" fill="#BBFBD1" style="fill:#BBFBD1;fill:color(display-p3 0.7333 0.9843 0.8187);fill-opacity:1;"/>
<path d="M16.5166 42.1463C17.6001 40.5503 18.7304 38.9887 19.9055 37.4634L172.095 37.4634C173.27 38.9887 174.4 40.5504 175.483 42.1463L16.5166 42.1463Z" fill="#BBFBD1" style="fill:#BBFBD1;fill:color(display-p3 0.7333 0.9843 0.8187);fill-opacity:1;"/>
<path d="M10.9083 51.5122C11.7401 49.9245 12.615 48.363 13.5314 46.8293L178.469 46.8293C179.385 48.363 180.26 49.9245 181.092 51.5122L10.9083 51.5122Z" fill="#BBFBD1" style="fill:#BBFBD1;fill:color(display-p3 0.7333 0.9843 0.8187);fill-opacity:1;"/>
<path d="M6.62784 60.878C7.25 59.2961 7.91296 57.7347 8.6154 56.1951L183.385 56.1951C184.087 57.7347 184.75 59.2961 185.372 60.878L6.62784 60.878Z" fill="#BBFBD1" style="fill:#BBFBD1;fill:color(display-p3 0.7333 0.9843 0.8187);fill-opacity:1;"/>
<path d="M3.49434 70.2439C3.93267 68.6662 4.41028 67.1048 4.92605 65.561L187.074 65.561C187.59 67.1048 188.067 68.6662 188.506 70.2439L3.49434 70.2439Z" fill="#BBFBD1" style="fill:#BBFBD1;fill:color(display-p3 0.7333 0.9843 0.8187);fill-opacity:1;"/>
<path d="M1.39365 79.6097C1.66449 78.0353 1.97367 76.474 2.3202 74.9268L189.68 74.9268C190.026 76.474 190.336 78.0353 190.606 79.6098L1.39365 79.6097Z" fill="#BBFBD1" style="fill:#BBFBD1;fill:color(display-p3 0.7333 0.9843 0.8187);fill-opacity:1;"/>
<path d="M0.253082 88.9756C0.36675 87.4038 0.518266 85.8425 0.706706 84.2927L191.293 84.2927C191.482 85.8426 191.633 87.4038 191.747 88.9756L0.253082 88.9756Z" fill="#BBFBD1" style="fill:#BBFBD1;fill:color(display-p3 0.7333 0.9843 0.8187);fill-opacity:1;"/>
<path d="M0.0280048 98.3414C0.00937583 97.5632 1.35991e-05 96.7827 1.36333e-05 96C1.36675e-05 95.2173 0.00937596 94.4367 0.028005 93.6585L191.972 93.6585C191.991 94.4368 192 95.2173 192 96C192 96.7827 191.991 97.5632 191.972 98.3415L0.0280048 98.3414Z" fill="#BBFBD1" style="fill:#BBFBD1;fill:color(display-p3 0.7333 0.9843 0.8187);fill-opacity:1;"/>
<path d="M0.706689 107.707C0.518249 106.157 0.36675 104.596 0.253081 103.024L191.747 103.024C191.633 104.596 191.482 106.157 191.293 107.707L0.706689 107.707Z" fill="#BBFBD1" style="fill:#BBFBD1;fill:color(display-p3 0.7333 0.9843 0.8187);fill-opacity:1;"/>
<path d="M2.3202 117.073C1.97367 115.526 1.66449 113.965 1.39365 112.39L190.606 112.39C190.336 113.965 190.026 115.526 189.68 117.073L2.3202 117.073Z" fill="#BBFBD1" style="fill:#BBFBD1;fill:color(display-p3 0.7333 0.9843 0.8187);fill-opacity:1;"/>
<path d="M4.92604 126.439C4.41027 124.895 3.93267 123.334 3.49433 121.756L188.506 121.756C188.067 123.334 187.59 124.895 187.074 126.439L4.92604 126.439Z" fill="#BBFBD1" style="fill:#BBFBD1;fill:color(display-p3 0.7333 0.9843 0.8187);fill-opacity:1;"/>
<path d="M8.61539 135.805C7.91295 134.265 7.25 132.704 6.62784 131.122L185.372 131.122C184.75 132.704 184.087 134.265 183.385 135.805L8.61539 135.805Z" fill="#BBFBD1" style="fill:#BBFBD1;fill:color(display-p3 0.7333 0.9843 0.8187);fill-opacity:1;"/>
<path d="M13.5314 145.171C12.615 143.637 11.7401 142.075 10.9083 140.488L181.092 140.488C180.26 142.075 179.385 143.637 178.469 145.171L13.5314 145.171Z" fill="#BBFBD1" style="fill:#BBFBD1;fill:color(display-p3 0.7333 0.9843 0.8187);fill-opacity:1;"/>
<path d="M19.9055 154.537C18.7304 153.011 17.6001 151.45 16.5166 149.854L175.483 149.854C174.4 151.45 173.27 153.011 172.095 154.537L19.9055 154.537Z" fill="#BBFBD1" style="fill:#BBFBD1;fill:color(display-p3 0.7333 0.9843 0.8187);fill-opacity:1;"/>
<path d="M28.1379 163.902C26.6254 162.391 25.163 160.829 23.7536 159.219L168.246 159.22C166.837 160.829 165.375 162.391 163.862 163.902L28.1379 163.902Z" fill="#BBFBD1" style="fill:#BBFBD1;fill:color(display-p3 0.7333 0.9843 0.8187);fill-opacity:1;"/>
<path d="M39.0193 173.268C37.0079 171.783 35.0566 170.22 33.1696 168.585L158.83 168.585C156.943 170.22 154.992 171.783 152.981 173.268L39.0193 173.268Z" fill="#BBFBD1" style="fill:#BBFBD1;fill:color(display-p3 0.7333 0.9843 0.8187);fill-opacity:1;"/>
<path d="M54.5898 182.634C51.6307 181.217 48.7555 179.653 45.9736 177.951L146.026 177.951C143.245 179.653 140.369 181.217 137.41 182.634L54.5898 182.634Z" fill="#BBFBD1" style="fill:#BBFBD1;fill:color(display-p3 0.7333 0.9843 0.8187);fill-opacity:1;"/>
<path d="M96 192C85.6337 192 75.6512 190.357 66.2986 187.317L125.701 187.317C116.349 190.357 106.366 192 96 192Z" fill="#BBFBD1" style="fill:#BBFBD1;fill:color(display-p3 0.7333 0.9843 0.8187);fill-opacity:1;"/>
<path d="M96 144C69.4904 144 48 122.51 48 96C48 69.4903 69.4904 48 96 48C122.51 48 144 69.4903 144 96C144 122.51 122.51 144 96 144Z" fill="#BBFBD1" style="fill:#BBFBD1;fill:color(display-p3 0.7333 0.9843 0.8187);fill-opacity:1;"/>
</g>
<g style="mix-blend-mode:soft-light">
<path d="M384 96C394.366 96 404.349 94.3569 413.701 91.317L384 91.317L384 96Z" fill="#92F6A2" style="fill:#92F6A2;fill:color(display-p3 0.5725 0.9647 0.6353);fill-opacity:1;"/>
<path d="M434.026 81.9512C431.244 83.653 428.369 85.2171 425.41 86.6341L384 86.6341L384 81.9512L434.026 81.9512Z" fill="#92F6A2" style="fill:#92F6A2;fill:color(display-p3 0.5725 0.9647 0.6353);fill-opacity:1;"/>
<path d="M446.83 72.5853C444.943 74.2201 442.992 75.7825 440.98 77.2683L384 77.2683L384 72.5854L446.83 72.5853Z" fill="#92F6A2" style="fill:#92F6A2;fill:color(display-p3 0.5725 0.9647 0.6353);fill-opacity:1;"/>
<path d="M456.246 63.2195C454.837 64.8289 453.374 66.3908 451.862 67.9024L384 67.9024L384 63.2195L456.246 63.2195Z" fill="#92F6A2" style="fill:#92F6A2;fill:color(display-p3 0.5725 0.9647 0.6353);fill-opacity:1;"/>
<path d="M463.483 53.8536C462.4 55.4496 461.269 57.0113 460.094 58.5366L384 58.5366L384 53.8536L463.483 53.8536Z" fill="#92F6A2" style="fill:#92F6A2;fill:color(display-p3 0.5725 0.9647 0.6353);fill-opacity:1;"/>
<path d="M469.091 44.4878C468.26 46.0754 467.385 47.6369 466.468 49.1707L384 49.1707L384 44.4878L469.091 44.4878Z" fill="#92F6A2" style="fill:#92F6A2;fill:color(display-p3 0.5725 0.9647 0.6353);fill-opacity:1;"/>
<path d="M473.372 35.1219C472.75 36.7039 472.087 38.2653 471.384 39.8049L384 39.8049L384 35.1219L473.372 35.1219Z" fill="#92F6A2" style="fill:#92F6A2;fill:color(display-p3 0.5725 0.9647 0.6353);fill-opacity:1;"/>
<path d="M476.505 25.7561C476.067 27.3338 475.589 28.8951 475.074 30.439L384 30.439L384 25.7561L476.505 25.7561Z" fill="#92F6A2" style="fill:#92F6A2;fill:color(display-p3 0.5725 0.9647 0.6353);fill-opacity:1;"/>
<path d="M478.606 16.3902C478.335 17.9646 478.026 19.5259 477.68 21.0732L384 21.0732L384 16.3902L478.606 16.3902Z" fill="#92F6A2" style="fill:#92F6A2;fill:color(display-p3 0.5725 0.9647 0.6353);fill-opacity:1;"/>
<path d="M479.747 7.02438C479.633 8.59614 479.481 10.1574 479.293 11.7073L384 11.7073L384 7.02438L479.747 7.02438Z" fill="#92F6A2" style="fill:#92F6A2;fill:color(display-p3 0.5725 0.9647 0.6353);fill-opacity:1;"/>
<path d="M479.972 -4.19753e-06C480.009 1.55646 480.009 0.784985 479.972 2.34145L384 2.34145L384 -4.31492e-07L479.972 -4.19753e-06Z" fill="#92F6A2" style="fill:#92F6A2;fill:color(display-p3 0.5725 0.9647 0.6353);fill-opacity:1;"/>
<path fill-rule="evenodd" clip-rule="evenodd" d="M384 192C490.039 192 576 106.039 576 0L528 -2.09815e-06C528 79.529 463.529 144 384 144L384 192Z" fill="#92F6A2" style="fill:#92F6A2;fill:color(display-p3 0.5725 0.9647 0.6353);fill-opacity:1;"/>
</g>
<g style="mix-blend-mode:soft-light">
<path d="M192 -8.39259e-06L240 -6.29444e-06C240 79.529 304.471 144 384 144L384 192C277.961 192 192 106.039 192 -8.39259e-06Z" fill="#41C676" style="fill:#41C676;fill:color(display-p3 0.2542 0.7772 0.4634);fill-opacity:1;"/>
</g>
<g style="mix-blend-mode:soft-light">
<path d="M384 384L384 288L288 384L384 384Z" fill="#BBFBD1" style="fill:#BBFBD1;fill:color(display-p3 0.7333 0.9843 0.8187);fill-opacity:1;"/>
<path d="M288 384L288 288L192 384L288 384Z" fill="#BBFBD1" style="fill:#BBFBD1;fill:color(display-p3 0.7333 0.9843 0.8187);fill-opacity:1;"/>
<path d="M384 288L384 192L288 288L384 288Z" fill="#BBFBD1" style="fill:#BBFBD1;fill:color(display-p3 0.7333 0.9843 0.8187);fill-opacity:1;"/>
<path d="M288 288L288 192L192 288L288 288Z" fill="#BBFBD1" style="fill:#BBFBD1;fill:color(display-p3 0.7333 0.9843 0.8187);fill-opacity:1;"/>
</g>
<g style="mix-blend-mode:soft-light">
<path d="M960 768L960 576L912 624L912 720L816 720L768 768L960 768Z" fill="#389E67" style="fill:#389E67;fill:color(display-p3 0.2182 0.6210 0.4035);fill-opacity:1;"/>
<path d="M816 624L816 720L912 624L816 624Z" fill="#389E67" style="fill:#389E67;fill:color(display-p3 0.2182 0.6210 0.4035);fill-opacity:1;"/>
</g>
<g style="mix-blend-mode:soft-light">
<path fill-rule="evenodd" clip-rule="evenodd" d="M768 576C768 469.961 682.039 384 576 384L384 384C384 490.039 469.961 576 576 576L768 576ZM576 422.4C647.572 422.4 707.71 471.351 724.761 537.6L576 537.6C504.429 537.6 444.291 488.649 427.239 422.4L576 422.4Z" fill="#77ED91" style="fill:#77ED91;fill:color(display-p3 0.4655 0.9305 0.5678);fill-opacity:1;"/>
<path d="M709.624 500.199C711.279 503.11 712.841 506.08 714.307 509.105L714.307 537.6L709.624 537.6L709.624 500.199Z" fill="#77ED91" style="fill:#77ED91;fill:color(display-p3 0.4655 0.9305 0.5678);fill-opacity:1;"/>
<path d="M700.258 485.689C701.878 487.914 703.44 490.184 704.941 492.497L704.941 537.6L700.258 537.6L700.258 485.689Z" fill="#77ED91" style="fill:#77ED91;fill:color(display-p3 0.4655 0.9305 0.5678);fill-opacity:1;"/>
<path d="M690.893 474.053C692.496 475.859 694.057 477.702 695.575 479.583L695.575 537.6L690.893 537.6L690.893 474.053Z" fill="#77ED91" style="fill:#77ED91;fill:color(display-p3 0.4655 0.9305 0.5678);fill-opacity:1;"/>
<path d="M681.527 464.388C683.12 465.896 684.682 467.437 686.21 469.01L686.21 537.6L681.527 537.6L681.527 464.388Z" fill="#77ED91" style="fill:#77ED91;fill:color(display-p3 0.4655 0.9305 0.5678);fill-opacity:1;"/>
<path d="M672.161 456.218C673.748 457.494 675.309 458.801 676.844 460.137L676.844 537.6L672.161 537.6L672.161 456.218Z" fill="#77ED91" style="fill:#77ED91;fill:color(display-p3 0.4655 0.9305 0.5678);fill-opacity:1;"/>
<path d="M662.795 449.256C664.378 450.342 665.939 451.457 667.478 452.599L667.478 537.6L662.795 537.6L662.795 449.256Z" fill="#77ED91" style="fill:#77ED91;fill:color(display-p3 0.4655 0.9305 0.5678);fill-opacity:1;"/>
<path d="M653.429 443.315C655.008 444.239 656.57 445.189 658.112 446.167L658.112 537.6L653.429 537.6L653.429 443.315Z" fill="#77ED91" style="fill:#77ED91;fill:color(display-p3 0.4655 0.9305 0.5678);fill-opacity:1;"/>
<path d="M644.063 438.265C645.64 439.046 647.201 439.853 648.746 440.685L648.746 537.6L644.063 537.6L644.063 438.265Z" fill="#77ED91" style="fill:#77ED91;fill:color(display-p3 0.4655 0.9305 0.5678);fill-opacity:1;"/>
<path d="M634.697 434.015C636.272 434.666 637.833 435.343 639.38 436.045L639.38 537.6L634.697 537.6L634.697 434.015Z" fill="#77ED91" style="fill:#77ED91;fill:color(display-p3 0.4655 0.9305 0.5678);fill-opacity:1;"/>
<path d="M625.332 430.494C626.904 431.027 628.465 431.584 630.015 432.166L630.015 537.6L625.332 537.6L625.332 430.494Z" fill="#77ED91" style="fill:#77ED91;fill:color(display-p3 0.4655 0.9305 0.5678);fill-opacity:1;"/>
<path d="M615.966 427.651C617.537 428.073 619.098 428.52 620.649 428.99L620.649 537.6L615.966 537.6L615.966 427.651Z" fill="#77ED91" style="fill:#77ED91;fill:color(display-p3 0.4655 0.9305 0.5678);fill-opacity:1;"/>
<path d="M606.6 425.448C608.209 425.774 609.809 426.124 611.4 426.499L611.4 537.6L606.6 537.6L606.6 425.448Z" fill="#77ED91" style="fill:#77ED91;fill:color(display-p3 0.4655 0.9305 0.5678);fill-opacity:1;"/>
<path d="M597.351 423.872C598.92 424.09 600.481 424.332 602.034 424.597L602.034 537.6L597.351 537.6L597.351 423.872Z" fill="#77ED91" style="fill:#77ED91;fill:color(display-p3 0.4655 0.9305 0.5678);fill-opacity:1;"/>
<path d="M587.985 422.861C589.553 422.982 591.114 423.127 592.668 423.294L592.668 537.6L587.985 537.6L587.985 422.861Z" fill="#77ED91" style="fill:#77ED91;fill:color(display-p3 0.4655 0.9305 0.5678);fill-opacity:1;"/>
<path d="M578.619 422.422C580.186 422.448 581.747 422.498 583.302 422.571L583.302 537.6L578.619 537.6L578.619 422.422Z" fill="#77ED91" style="fill:#77ED91;fill:color(display-p3 0.4655 0.9305 0.5678);fill-opacity:1;"/>
<path d="M569.254 422.4L573.936 422.4L573.936 537.587C572.37 537.566 570.809 537.522 569.254 537.455L569.254 422.4Z" fill="#77ED91" style="fill:#77ED91;fill:color(display-p3 0.4655 0.9305 0.5678);fill-opacity:1;"/>
<path d="M559.888 422.4L564.571 422.4L564.571 537.181C563.003 537.066 561.442 536.927 559.888 536.765L559.888 422.4Z" fill="#77ED91" style="fill:#77ED91;fill:color(display-p3 0.4655 0.9305 0.5678);fill-opacity:1;"/>
<path d="M550.522 422.4L555.205 422.4L555.205 536.204C553.636 535.992 552.075 535.756 550.522 535.497L550.522 422.4Z" fill="#77ED91" style="fill:#77ED91;fill:color(display-p3 0.4655 0.9305 0.5678);fill-opacity:1;"/>
<path d="M541.156 422.4L545.839 422.4L545.839 534.64C544.269 534.328 542.708 533.991 541.156 533.631L541.156 422.4Z" fill="#77ED91" style="fill:#77ED91;fill:color(display-p3 0.4655 0.9305 0.5678);fill-opacity:1;"/>
<path d="M531.79 422.4L536.473 422.4L536.473 532.467C534.902 532.049 533.341 531.608 531.79 531.143L531.79 422.4Z" fill="#77ED91" style="fill:#77ED91;fill:color(display-p3 0.4655 0.9305 0.5678);fill-opacity:1;"/>
<path d="M522.424 422.4L527.107 422.4L527.107 529.655C525.535 529.127 523.974 528.575 522.424 527.998L522.424 422.4Z" fill="#77ED91" style="fill:#77ED91;fill:color(display-p3 0.4655 0.9305 0.5678);fill-opacity:1;"/>
<path d="M513.058 422.4L517.741 422.4L517.741 526.167C516.167 525.521 514.606 524.85 513.058 524.154L513.058 422.4Z" fill="#77ED91" style="fill:#77ED91;fill:color(display-p3 0.4655 0.9305 0.5678);fill-opacity:1;"/>
<path d="M503.693 422.4L508.376 422.4L508.376 521.951C506.799 521.177 505.238 520.377 503.693 519.55L503.693 422.4Z" fill="#77ED91" style="fill:#77ED91;fill:color(display-p3 0.4655 0.9305 0.5678);fill-opacity:1;"/>
<path d="M494.327 422.4L499.01 422.4L499.01 516.941C497.431 516.024 495.869 515.081 494.327 514.11L494.327 422.4Z" fill="#77ED91" style="fill:#77ED91;fill:color(display-p3 0.4655 0.9305 0.5678);fill-opacity:1;"/>
<path d="M484.961 422.4L489.644 422.4L489.644 511.044C488.061 509.966 486.5 508.86 484.961 507.725L484.961 422.4Z" fill="#77ED91" style="fill:#77ED91;fill:color(display-p3 0.4655 0.9305 0.5678);fill-opacity:1;"/>
<path d="M475.595 422.4L480.278 422.4L480.278 504.133C478.691 502.867 477.13 501.57 475.595 500.244L475.595 422.4Z" fill="#77ED91" style="fill:#77ED91;fill:color(display-p3 0.4655 0.9305 0.5678);fill-opacity:1;"/>
<path d="M466.229 422.4L470.912 422.4L470.912 496.025C469.319 494.53 467.757 493.001 466.229 491.44L466.229 422.4Z" fill="#77ED91" style="fill:#77ED91;fill:color(display-p3 0.4655 0.9305 0.5678);fill-opacity:1;"/>
<path d="M456.863 422.4L461.546 422.4L461.546 486.439C459.943 484.649 458.382 482.822 456.863 480.958L456.863 422.4Z" fill="#77ED91" style="fill:#77ED91;fill:color(display-p3 0.4655 0.9305 0.5678);fill-opacity:1;"/>
<path d="M447.497 422.4L452.18 422.4L452.18 474.911C450.561 472.709 449 470.463 447.497 468.175L447.497 422.4Z" fill="#77ED91" style="fill:#77ED91;fill:color(display-p3 0.4655 0.9305 0.5678);fill-opacity:1;"/>
<path d="M438.132 422.4L442.815 422.4L442.815 460.567C441.162 457.699 439.6 454.773 438.132 451.792L438.132 422.4Z" fill="#77ED91" style="fill:#77ED91;fill:color(display-p3 0.4655 0.9305 0.5678);fill-opacity:1;"/>
<path d="M428.766 422.4L433.449 422.4L433.449 441.311C431.689 436.937 430.124 432.464 428.766 427.902L428.766 422.4Z" fill="#77ED91" style="fill:#77ED91;fill:color(display-p3 0.4655 0.9305 0.5678);fill-opacity:1;"/>
<path d="M718.99 537.6L718.99 519.791C720.762 524.294 722.326 528.9 723.673 533.599L723.673 537.6L718.99 537.6Z" fill="#77ED91" style="fill:#77ED91;fill:color(display-p3 0.4655 0.9305 0.5678);fill-opacity:1;"/>
</g>
<g style="mix-blend-mode:soft-light">
<path fill-rule="evenodd" clip-rule="evenodd" d="M768 192C768 298.039 682.039 384 576 384L384 384C384 277.961 469.961 192 576 192L768 192ZM576 345.6C647.572 345.6 707.71 296.649 724.761 230.4L576 230.4C504.429 230.4 444.291 279.351 427.239 345.6L576 345.6Z" fill="#56D9C1" style="fill:#56D9C1;fill:color(display-p3 0.3384 0.8498 0.7578);fill-opacity:1;"/>
<path d="M709.624 267.8C711.279 264.89 712.841 261.92 714.307 258.895L714.307 230.4L709.624 230.4L709.624 267.8Z" fill="#56D9C1" style="fill:#56D9C1;fill:color(display-p3 0.3384 0.8498 0.7578);fill-opacity:1;"/>
<path d="M700.258 282.311C701.878 280.086 703.44 277.816 704.941 275.502L704.941 230.4L700.258 230.4L700.258 282.311Z" fill="#56D9C1" style="fill:#56D9C1;fill:color(display-p3 0.3384 0.8498 0.7578);fill-opacity:1;"/>
<path d="M690.893 293.947C692.496 292.141 694.057 290.297 695.575 288.417L695.576 230.4L690.893 230.4L690.893 293.947Z" fill="#56D9C1" style="fill:#56D9C1;fill:color(display-p3 0.3384 0.8498 0.7578);fill-opacity:1;"/>
<path d="M681.527 303.612C683.12 302.104 684.682 300.563 686.21 298.99L686.21 230.4L681.527 230.4L681.527 303.612Z" fill="#56D9C1" style="fill:#56D9C1;fill:color(display-p3 0.3384 0.8498 0.7578);fill-opacity:1;"/>
<path d="M672.161 311.782C673.748 310.506 675.309 309.199 676.844 307.863L676.844 230.4L672.161 230.4L672.161 311.782Z" fill="#56D9C1" style="fill:#56D9C1;fill:color(display-p3 0.3384 0.8498 0.7578);fill-opacity:1;"/>
<path d="M662.795 318.744C664.378 317.658 665.939 316.543 667.478 315.4L667.478 230.4L662.795 230.4L662.795 318.744Z" fill="#56D9C1" style="fill:#56D9C1;fill:color(display-p3 0.3384 0.8498 0.7578);fill-opacity:1;"/>
<path d="M653.429 324.685C655.008 323.761 656.57 322.81 658.112 321.833L658.112 230.4L653.429 230.4L653.429 324.685Z" fill="#56D9C1" style="fill:#56D9C1;fill:color(display-p3 0.3384 0.8498 0.7578);fill-opacity:1;"/>
<path d="M644.063 329.734C645.64 328.954 647.201 328.147 648.746 327.315L648.746 230.4L644.063 230.4L644.063 329.734Z" fill="#56D9C1" style="fill:#56D9C1;fill:color(display-p3 0.3384 0.8498 0.7578);fill-opacity:1;"/>
<path d="M634.697 333.985C636.272 333.334 637.833 332.657 639.38 331.955L639.38 230.4L634.697 230.4L634.697 333.985Z" fill="#56D9C1" style="fill:#56D9C1;fill:color(display-p3 0.3384 0.8498 0.7578);fill-opacity:1;"/>
<path d="M625.332 337.506C626.904 336.973 628.465 336.416 630.015 335.834L630.015 230.4L625.332 230.4L625.332 337.506Z" fill="#56D9C1" style="fill:#56D9C1;fill:color(display-p3 0.3384 0.8498 0.7578);fill-opacity:1;"/>
<path d="M615.966 340.349C617.537 339.926 619.098 339.48 620.649 339.01L620.649 230.4L615.966 230.4L615.966 340.349Z" fill="#56D9C1" style="fill:#56D9C1;fill:color(display-p3 0.3384 0.8498 0.7578);fill-opacity:1;"/>
<path d="M606.6 342.551C608.209 342.226 609.809 341.876 611.4 341.5L611.4 230.4L606.6 230.4L606.6 342.551Z" fill="#56D9C1" style="fill:#56D9C1;fill:color(display-p3 0.3384 0.8498 0.7578);fill-opacity:1;"/>
<path d="M597.351 344.128C598.92 343.909 600.481 343.668 602.034 343.402L602.034 230.4L597.351 230.4L597.351 344.128Z" fill="#56D9C1" style="fill:#56D9C1;fill:color(display-p3 0.3384 0.8498 0.7578);fill-opacity:1;"/>
<path d="M587.985 345.139C589.553 345.018 591.114 344.873 592.668 344.706L592.668 230.4L587.985 230.4L587.985 345.139Z" fill="#56D9C1" style="fill:#56D9C1;fill:color(display-p3 0.3384 0.8498 0.7578);fill-opacity:1;"/>
<path d="M578.619 345.578C580.186 345.551 581.747 345.502 583.302 345.429L583.302 230.4L578.619 230.4L578.619 345.578Z" fill="#56D9C1" style="fill:#56D9C1;fill:color(display-p3 0.3384 0.8498 0.7578);fill-opacity:1;"/>
<path d="M569.254 345.6L573.936 345.6L573.936 230.413C572.37 230.434 570.809 230.478 569.254 230.545L569.254 345.6Z" fill="#56D9C1" style="fill:#56D9C1;fill:color(display-p3 0.3384 0.8498 0.7578);fill-opacity:1;"/>
<path d="M559.888 345.6L564.571 345.6L564.571 230.818C563.003 230.934 561.442 231.073 559.888 231.235L559.888 345.6Z" fill="#56D9C1" style="fill:#56D9C1;fill:color(display-p3 0.3384 0.8498 0.7578);fill-opacity:1;"/>
<path d="M550.522 345.6L555.205 345.6L555.205 231.795C553.636 232.008 552.075 232.244 550.522 232.503L550.522 345.6Z" fill="#56D9C1" style="fill:#56D9C1;fill:color(display-p3 0.3384 0.8498 0.7578);fill-opacity:1;"/>
<path d="M541.156 345.6L545.839 345.6L545.839 233.36C544.269 233.672 542.708 234.009 541.156 234.369L541.156 345.6Z" fill="#56D9C1" style="fill:#56D9C1;fill:color(display-p3 0.3384 0.8498 0.7578);fill-opacity:1;"/>
<path d="M531.79 345.6L536.473 345.6L536.473 235.533C534.902 235.951 533.341 236.392 531.79 236.857L531.79 345.6Z" fill="#56D9C1" style="fill:#56D9C1;fill:color(display-p3 0.3384 0.8498 0.7578);fill-opacity:1;"/>
<path d="M522.424 345.6L527.107 345.6L527.107 238.345C525.535 238.873 523.974 239.425 522.424 240.002L522.424 345.6Z" fill="#56D9C1" style="fill:#56D9C1;fill:color(display-p3 0.3384 0.8498 0.7578);fill-opacity:1;"/>
<path d="M513.058 345.6L517.741 345.6L517.741 241.833C516.167 242.479 514.606 243.15 513.058 243.846L513.058 345.6Z" fill="#56D9C1" style="fill:#56D9C1;fill:color(display-p3 0.3384 0.8498 0.7578);fill-opacity:1;"/>
<path d="M503.693 345.6L508.376 345.6L508.376 246.049C506.799 246.823 505.238 247.623 503.693 248.449L503.693 345.6Z" fill="#56D9C1" style="fill:#56D9C1;fill:color(display-p3 0.3384 0.8498 0.7578);fill-opacity:1;"/>
<path d="M494.327 345.6L499.01 345.6L499.01 251.059C497.431 251.975 495.869 252.919 494.327 253.89L494.327 345.6Z" fill="#56D9C1" style="fill:#56D9C1;fill:color(display-p3 0.3384 0.8498 0.7578);fill-opacity:1;"/>
<path d="M484.961 345.6L489.644 345.6L489.644 256.956C488.061 258.033 486.5 259.14 484.961 260.274L484.961 345.6Z" fill="#56D9C1" style="fill:#56D9C1;fill:color(display-p3 0.3384 0.8498 0.7578);fill-opacity:1;"/>
<path d="M475.595 345.6L480.278 345.6L480.278 263.866C478.691 265.133 477.13 266.429 475.595 267.756L475.595 345.6Z" fill="#56D9C1" style="fill:#56D9C1;fill:color(display-p3 0.3384 0.8498 0.7578);fill-opacity:1;"/>
<path d="M466.229 345.6L470.912 345.6L470.912 271.975C469.319 273.47 467.757 274.999 466.229 276.56L466.229 345.6Z" fill="#56D9C1" style="fill:#56D9C1;fill:color(display-p3 0.3384 0.8498 0.7578);fill-opacity:1;"/>
<path d="M456.863 345.6L461.546 345.6L461.546 281.561C459.943 283.351 458.382 285.178 456.863 287.042L456.863 345.6Z" fill="#56D9C1" style="fill:#56D9C1;fill:color(display-p3 0.3384 0.8498 0.7578);fill-opacity:1;"/>
<path d="M447.497 345.6L452.18 345.6L452.18 293.089C450.561 295.29 449 297.536 447.497 299.825L447.497 345.6Z" fill="#56D9C1" style="fill:#56D9C1;fill:color(display-p3 0.3384 0.8498 0.7578);fill-opacity:1;"/>
<path d="M438.132 345.6L442.815 345.6L442.815 307.433C441.162 310.301 439.6 313.227 438.132 316.208L438.132 345.6Z" fill="#56D9C1" style="fill:#56D9C1;fill:color(display-p3 0.3384 0.8498 0.7578);fill-opacity:1;"/>
<path d="M428.766 345.6L433.449 345.6L433.449 326.689C431.689 331.063 430.124 335.536 428.766 340.098L428.766 345.6Z" fill="#56D9C1" style="fill:#56D9C1;fill:color(display-p3 0.3384 0.8498 0.7578);fill-opacity:1;"/>
<path d="M718.99 230.4L718.99 248.209C720.762 243.706 722.326 239.1 723.673 234.401L723.673 230.4L718.99 230.4Z" fill="#56D9C1" style="fill:#56D9C1;fill:color(display-p3 0.3384 0.8498 0.7578);fill-opacity:1;"/>
</g>
<g style="mix-blend-mode:soft-light">
<path d="M192 192L192 384L-2.99371e-05 192L192 192Z" fill="#77ED91" style="fill:#77ED91;fill:color(display-p3 0.4655 0.9305 0.5678);fill-opacity:1;"/>
<path d="M125.701 196.683C116.349 193.643 106.366 192 96 192C85.6337 192 75.6512 193.643 66.2987 196.683L125.701 196.683Z" fill="#77ED91" style="fill:#77ED91;fill:color(display-p3 0.4655 0.9305 0.5678);fill-opacity:1;"/>
<path d="M45.9736 206.049C48.7555 204.347 51.6307 202.783 54.5899 201.366L137.41 201.366C140.369 202.783 143.245 204.347 146.026 206.049L45.9736 206.049Z" fill="#77ED91" style="fill:#77ED91;fill:color(display-p3 0.4655 0.9305 0.5678);fill-opacity:1;"/>
<path d="M33.1696 215.415C35.0566 213.78 37.0079 212.217 39.0193 210.732L152.981 210.732C154.992 212.217 156.943 213.78 158.83 215.415L33.1696 215.415Z" fill="#77ED91" style="fill:#77ED91;fill:color(display-p3 0.4655 0.9305 0.5678);fill-opacity:1;"/>
<path d="M23.7536 224.78C25.1631 223.171 26.6254 221.609 28.138 220.098L163.862 220.098C165.375 221.609 166.837 223.171 168.246 224.78L23.7536 224.78Z" fill="#77ED91" style="fill:#77ED91;fill:color(display-p3 0.4655 0.9305 0.5678);fill-opacity:1;"/>
<path d="M16.5166 234.146C17.6001 232.55 18.7304 230.989 19.9055 229.463L172.095 229.463C173.27 230.989 174.4 232.55 175.483 234.146L16.5166 234.146Z" fill="#77ED91" style="fill:#77ED91;fill:color(display-p3 0.4655 0.9305 0.5678);fill-opacity:1;"/>
<path d="M10.9083 243.512C11.7401 241.925 12.615 240.363 13.5314 238.829L178.469 238.829C179.385 240.363 180.26 241.925 181.092 243.512L10.9083 243.512Z" fill="#77ED91" style="fill:#77ED91;fill:color(display-p3 0.4655 0.9305 0.5678);fill-opacity:1;"/>
<path d="M6.62784 252.878C7.25 251.296 7.91296 249.735 8.6154 248.195L183.385 248.195C184.087 249.735 184.75 251.296 185.372 252.878L6.62784 252.878Z" fill="#77ED91" style="fill:#77ED91;fill:color(display-p3 0.4655 0.9305 0.5678);fill-opacity:1;"/>
<path d="M3.49434 262.244C3.93267 260.666 4.41028 259.105 4.92605 257.561L187.074 257.561C187.59 259.105 188.067 260.666 188.506 262.244L3.49434 262.244Z" fill="#77ED91" style="fill:#77ED91;fill:color(display-p3 0.4655 0.9305 0.5678);fill-opacity:1;"/>
<path d="M1.39365 271.61C1.66449 270.035 1.97367 268.474 2.3202 266.927L189.68 266.927C190.026 268.474 190.336 270.035 190.606 271.61L1.39365 271.61Z" fill="#77ED91" style="fill:#77ED91;fill:color(display-p3 0.4655 0.9305 0.5678);fill-opacity:1;"/>
<path d="M0.253082 280.976C0.36675 279.404 0.518266 277.843 0.706706 276.293L191.293 276.293C191.482 277.843 191.633 279.404 191.747 280.976L0.253082 280.976Z" fill="#77ED91" style="fill:#77ED91;fill:color(display-p3 0.4655 0.9305 0.5678);fill-opacity:1;"/>
<path d="M0.0280048 290.341C0.00937583 289.563 1.35991e-05 288.783 1.36333e-05 288C1.36675e-05 287.217 0.00937596 286.437 0.028005 285.659L191.972 285.659C191.991 286.437 192 287.217 192 288C192 288.783 191.991 289.563 191.972 290.341L0.0280048 290.341Z" fill="#77ED91" style="fill:#77ED91;fill:color(display-p3 0.4655 0.9305 0.5678);fill-opacity:1;"/>
<path d="M0.706689 299.707C0.518249 298.157 0.36675 296.596 0.253081 295.024L191.747 295.024C191.633 296.596 191.482 298.157 191.293 299.707L0.706689 299.707Z" fill="#77ED91" style="fill:#77ED91;fill:color(display-p3 0.4655 0.9305 0.5678);fill-opacity:1;"/>
<path d="M2.3202 309.073C1.97367 307.526 1.66449 305.965 1.39365 304.39L190.606 304.39C190.336 305.965 190.026 307.526 189.68 309.073L2.3202 309.073Z" fill="#77ED91" style="fill:#77ED91;fill:color(display-p3 0.4655 0.9305 0.5678);fill-opacity:1;"/>
<path d="M4.92604 318.439C4.41027 316.895 3.93267 315.334 3.49433 313.756L188.506 313.756C188.067 315.334 187.59 316.895 187.074 318.439L4.92604 318.439Z" fill="#77ED91" style="fill:#77ED91;fill:color(display-p3 0.4655 0.9305 0.5678);fill-opacity:1;"/>
<path d="M8.61539 327.805C7.91295 326.265 7.25 324.704 6.62784 323.122L185.372 323.122C184.75 324.704 184.087 326.265 183.385 327.805L8.61539 327.805Z" fill="#77ED91" style="fill:#77ED91;fill:color(display-p3 0.4655 0.9305 0.5678);fill-opacity:1;"/>
<path d="M13.5314 337.171C12.615 335.637 11.7401 334.075 10.9083 332.488L181.092 332.488C180.26 334.075 179.385 335.637 178.469 337.171L13.5314 337.171Z" fill="#77ED91" style="fill:#77ED91;fill:color(display-p3 0.4655 0.9305 0.5678);fill-opacity:1;"/>
<path d="M19.9055 346.537C18.7304 345.011 17.6001 343.45 16.5166 341.854L175.483 341.854C174.4 343.45 173.27 345.011 172.095 346.537L19.9055 346.537Z" fill="#77ED91" style="fill:#77ED91;fill:color(display-p3 0.4655 0.9305 0.5678);fill-opacity:1;"/>
<path d="M28.1379 355.902C26.6254 354.391 25.163 352.829 23.7536 351.219L168.246 351.22C166.837 352.829 165.375 354.391 163.862 355.902L28.1379 355.902Z" fill="#77ED91" style="fill:#77ED91;fill:color(display-p3 0.4655 0.9305 0.5678);fill-opacity:1;"/>
<path d="M39.0193 365.268C37.0079 363.783 35.0566 362.22 33.1696 360.585L158.83 360.585C156.943 362.22 154.992 363.783 152.981 365.268L39.0193 365.268Z" fill="#77ED91" style="fill:#77ED91;fill:color(display-p3 0.4655 0.9305 0.5678);fill-opacity:1;"/>
<path d="M54.5898 374.634C51.6307 373.217 48.7555 371.653 45.9736 369.951L146.026 369.951C143.245 371.653 140.369 373.217 137.41 374.634L54.5898 374.634Z" fill="#77ED91" style="fill:#77ED91;fill:color(display-p3 0.4655 0.9305 0.5678);fill-opacity:1;"/>
<path d="M96 384C85.6337 384 75.6512 382.357 66.2986 379.317L125.701 379.317C116.349 382.357 106.366 384 96 384Z" fill="#77ED91" style="fill:#77ED91;fill:color(display-p3 0.4655 0.9305 0.5678);fill-opacity:1;"/>
</g>
</svg>
