<svg width="32" height="37" viewBox="0 0 32 37" fill="none" xmlns="http://www.w3.org/2000/svg">
<path d="M17.0382 11.7867C17.0533 11.1438 17.3898 10.5249 17.9816 10.1764C18.6245 9.80683 19.3816 9.84589 19.9615 10.2154C19.9615 10.2154 31.0596 16.6417 31.0746 16.6538L31.0896 16.6598C31.6364 16.9993 31.9999 17.6061 31.9999 18.3092C31.9999 19.0122 31.5823 19.6821 30.9815 20.0096C30.9815 20.0096 19.8924 26.4269 19.8593 26.4479L19.8443 26.457C19.2885 26.7634 18.5765 26.7724 17.9786 26.4269C17.3387 26.0604 16.9962 25.3784 17.0352 24.6814V11.7837L17.0382 11.7867Z" fill="black" style="fill:black;fill-opacity:1;"/>
<path d="M0 2.31107C0.0150218 1.67114 0.357504 1.05225 0.961379 0.694728C1.60131 0.331201 2.35239 0.370257 2.95026 0.742797C2.95026 0.742797 14.0333 7.1631 14.0544 7.17512L14.0634 7.18714C14.6042 7.52362 14.9797 8.13051 14.9797 8.82752C14.9797 9.56959 14.5591 10.2065 13.9462 10.531C13.9462 10.531 2.85713 16.9633 2.84211 16.9753L2.8301 16.9813C2.26227 17.2908 1.55023 17.3058 0.961379 16.9603C0.321451 16.5848 -0.0300589 15.8998 0.00298895 15.2148V9.95114L0 2.31407V2.31107Z" fill="black" style="fill:black;fill-opacity:1;"/>
<path d="M0 21.2686C0.0150218 20.6166 0.357504 20.0007 0.961379 19.6582C1.60131 19.2887 2.35239 19.3247 2.95026 19.6943C2.95026 19.6943 14.0333 26.1206 14.0544 26.1356H14.0634C14.6042 26.4751 14.9797 27.088 14.9797 27.776C14.9797 28.5151 14.5591 29.161 13.9462 29.4885C13.9462 29.4885 2.85713 35.9118 2.84211 35.9298L2.8301 35.9358C2.26227 36.2453 1.55023 36.2483 0.961379 35.9028C0.321451 35.5422 -0.0300589 34.8512 0.00298895 34.1632V28.8996L0 21.2716V21.2686Z" fill="black" style="fill:black;fill-opacity:1;"/>
</svg>
